HIERARCHY
ROOT hip
{
	OFFSET 0.000000 0.000000 0.000000 
	CHANNELS 6 Xposition Yposition Zposition Xrotation Zrotation Yrotation
	JOINT abdomen
	{
		OFFSET 0.000000 3.402643 0.000000 
		CHANNELS 3 Xrotation Zrotation Yrotation
		JOINT chest
		{
			OFFSET 0.000000 8.438565 -0.680529 
			CHANNELS 3 Xrotation Zrotation Yrotation
			JOINT neck
			{
				OFFSET 0.000000 10.207942 -0.272212 
				CHANNELS 3 Xrotation Zrotation Yrotation
				JOINT head
				{
					OFFSET 0.000000 3.130431 0.000000 
					CHANNELS 3 Xrotation Zrotation Yrotation
					End Site
					{
						OFFSET 0.000000 3.130435 0.000000 
					}
				}
			}
			JOINT lCollar
			{
				OFFSET 3.470700 6.669187 -0.816635 
				CHANNELS 3 Yrotation Zrotation Xrotation
				JOINT lShldr
				{
					OFFSET 3.198488 0.000000 0.000000 
					CHANNELS 3 Zrotation Yrotation Xrotation
					JOINT lForeArm
					{
						OFFSET 10.139888 0.000000 0.000000 
						CHANNELS 3 Yrotation Zrotation Xrotation
						JOINT lHand
						{
							OFFSET 8.370511 0.000000 0.000000 
							CHANNELS 3 Zrotation Yrotation Xrotation
							End Site
							{
								OFFSET 4.083176 0.000000 0.000000 
							}
						}
					}
				}
			}
			JOINT rCollar
			{
				OFFSET -3.470700 6.669187 -0.816635 
				CHANNELS 3 Yrotation Zrotation Xrotation
				JOINT rShldr
				{
					OFFSET -3.198488 0.000000 0.000000 
					CHANNELS 3 Zrotation Yrotation Xrotation
					JOINT rForeArm
					{
						OFFSET -10.139888 0.000000 0.000000 
						CHANNELS 3 Yrotation Zrotation Xrotation
						JOINT rHand
						{
							OFFSET -8.370511 0.000000 0.000000 
							CHANNELS 3 Zrotation Yrotation Xrotation
							End Site
							{
								OFFSET -4.083176 0.000000 0.000000 
							}
						}
					}
				}
			}
		}
	}
	JOINT lThigh
	{
		OFFSET 5.308129 -1.633274 1.361059 
		CHANNELS 3 Xrotation Zrotation Yrotation
		JOINT lShin
		{
			OFFSET -2.041588 -20.007561 0.000000 
			CHANNELS 3 Xrotation Zrotation Yrotation
			JOINT lFoot
			{
				OFFSET 0.000000 -19.190928 -1.224953 
				CHANNELS 3 Xrotation Yrotation Zrotation
				End Site
				{
					OFFSET 0.000000 -2.449906 4.627600 
				}
			}
		}
	}
	JOINT rThigh
	{
		OFFSET -5.308129 -1.633274 1.361059 
		CHANNELS 3 Xrotation Zrotation Yrotation
		JOINT rShin
		{
			OFFSET 2.041588 -20.007561 0.000000 
			CHANNELS 3 Xrotation Zrotation Yrotation
			JOINT rFoot
			{
				OFFSET 0.000000 -19.190928 -1.224953 
				CHANNELS 3 Xrotation Yrotation Zrotation
				End Site
				{
					OFFSET 0.000000 -2.449906 4.627600 
				}
			}
		}
	}
}
MOTION
Frames: 8
Frame Time: 0.011111
22.485783 52.730774 15.470860 -179.727127 179.051376 3.813164 23.646103 -6.030012 -1.462814 -20.103922 4.557241 0.693213 -8.128440 -13.817093 -9.297338 28.168520 21.593899 -17.022810 9.969777 -14.785672 3.853935 -53.880157 -42.122322 32.761639 -61.827206 9.385139 13.215478 8.524705 12.647240 -52.405651 -4.049711 8.641859 2.072876 69.306824 56.551064 45.719013 63.216843 -9.447597 13.865711 -8.534408 -12.637552 82.855331 -0.506748 8.576048 0.439705 26.805971 -5.504205 -4.453060 -21.309692 -4.619179 -4.408207 -10.531849 -8.637784 -3.608862 30.626308 5.282005 4.907666 -16.457346 3.206646 3.898540 
22.365488 52.747066 15.528187 -179.727280 179.131454 4.222943 23.788183 -6.090913 -1.551692 -20.084332 4.556826 0.675234 -8.183948 -14.326073 -9.368381 28.134535 22.114738 -17.105576 9.969777 -14.785672 3.853935 -54.007626 -42.286781 32.297298 -62.200573 9.403975 13.393805 8.524705 12.647240 -52.679092 -4.049711 8.641859 2.072876 69.262245 55.720638 44.898655 64.219391 -9.464969 14.332353 -8.534408 -12.637552 82.425644 -0.506891 8.360588 0.436876 26.616308 -5.508202 -4.417866 -21.186476 -4.854046 -4.509859 -10.484465 -8.961168 -3.963225 30.486494 5.292667 4.877969 -16.275846 3.125261 3.867488 
22.262739 52.736732 15.608697 -179.737091 179.453888 4.416622 23.999310 -6.569706 -1.602400 -20.064425 4.605680 0.705654 -8.271573 -14.531552 -9.540717 27.527798 22.043652 -17.472527 9.969777 -14.785672 3.853935 -54.018433 -42.344833 32.079258 -62.765205 9.424222 13.649952 8.524705 12.647240 -52.552132 -4.049711 8.641859 2.072876 69.317360 54.739471 43.857155 65.549347 -9.453932 14.954097 -8.534408 -12.637552 81.654152 -0.458098 7.900882 0.025275 26.516581 -5.507920 -4.409046 -21.087440 -5.103279 -4.610454 -10.594393 -9.510376 -4.113970 30.356104 5.302099 4.869001 -16.003922 2.997323 3.829533 
22.206663 52.739861 15.707999 -179.795502 179.205170 4.397404 24.020069 -6.634336 -1.130783 -20.162920 4.520436 0.835442 -8.456108 -12.942339 -9.615017 26.683245 19.566759 -17.955688 9.969777 -14.785672 3.853935 -53.797825 -42.317963 32.257790 -63.299488 9.442234 13.892448 8.524705 12.647240 -52.151741 -4.049711 8.641859 2.072876 69.633156 53.561943 42.600357 67.037300 -9.403410 15.657103 -8.534408 -12.637552 81.341660 -0.652979 8.144791 -0.157382 26.435047 -5.518423 -4.393730 -20.890310 -5.563787 -4.798285 -10.777895 -9.264359 -3.755698 30.317642 5.292232 4.872761 -16.037825 2.630063 3.728673 
22.147770 52.762417 15.812317 -179.980530 178.946854 4.541374 23.915958 -6.585025 -0.802767 -20.241568 4.473678 0.907980 -8.031506 -14.517632 -9.566602 27.299847 22.420774 -17.364935 9.969777 -14.785672 3.853935 -53.593006 -42.259842 32.271919 -63.810966 9.452203 14.137033 8.524705 12.647240 -51.800182 -4.049711 8.641859 2.072876 69.881966 52.191406 41.455578 68.879654 -9.277020 16.545156 -8.534408 -12.637552 81.175644 -0.995393 8.404411 0.004892 26.263584 -5.527567 -4.380780 -20.625509 -5.848200 -4.906298 -11.098185 -9.038199 -3.523911 30.385750 5.306969 4.853433 -16.267202 2.307200 3.614250 
22.054729 52.794682 15.911307 179.737289 179.342712 4.899483 23.867924 -7.083220 -0.948217 -20.280207 4.562424 0.923365 -8.992047 -14.699311 -8.905345 28.613127 22.654640 -16.109537 9.969777 -14.785672 3.853935 -53.538300 -42.255516 32.267746 -64.374619 9.453537 14.386497 8.524705 12.647240 -51.341198 -4.049711 8.641859 2.072876 69.892616 50.625153 40.602921 71.149002 -9.013153 17.657743 -8.534408 -12.637552 81.859238 -1.258174 7.813501 0.022859 26.043173 -5.537698 -4.323937 -20.419918 -5.751262 -4.854183 -11.597803 -9.713287 -3.994243 30.507160 5.282994 4.896689 -16.198353 2.189259 3.602019 
21.960125 52.829769 15.999962 179.475037 -179.971863 5.439936 23.897909 -7.912435 -1.219940 -20.269342 4.738153 0.931738 -8.546032 -14.148828 -9.355350 27.144005 21.363888 -17.163301 9.969777 -14.785672 3.853935 -53.670822 -42.330826 32.368179 -64.928886 9.453727 14.646579 8.524705 12.647240 -50.989635 -4.049711 8.641859 2.072876 70.040947 49.435085 39.149986 72.854965 -8.731900 18.526375 -8.534408 -12.637552 81.244003 -1.434162 6.958524 -0.137723 25.863132 -5.537142 -4.317756 -20.161171 -5.905231 -4.916554 -12.036209 -10.756775 -4.630738 30.566818 5.282017 4.902450 -16.019405 2.142250 3.570390 
21.886192 52.857964 16.081097 179.194000 -179.646347 6.079765 23.904202 -8.314866 -1.638991 -20.013420 4.918890 0.873107 -8.885909 -13.947012 -9.336971 26.694784 20.852285 -17.237206 9.969777 -14.785672 3.853935 -53.738106 -42.402870 32.180416 -65.493401 9.448192 14.918619 8.524705 12.647240 -50.472054 -4.049711 8.641859 2.072876 70.589684 48.874371 38.029324 74.038612 -8.488211 19.138653 -8.534408 -12.637552 80.902206 -1.766517 6.521449 -0.302275 25.743523 -5.532375 -4.325667 -19.918299 -6.358140 -5.100720 -12.362636 -11.366485 -4.979201 30.546803 5.283137 4.900207 -16.084324 1.890005 3.511171 
